{
  "title": "The Avengers (2012) DVDRip XviD-MAX",
  "uid": 7544609,
  "size": 2255472254,
  "categoryP": "video",
  "categoryS": "movies",
  "magnet": "?xt=urn:btih:2474e7f3e11692639b0894c1f06543cad7c4ad53&amp;dn=The+Avengers+%282012%29+DVDRip+XviD-MAX&amp;tr=udp%3A%2F%2Ftracker.openbittorrent.com%3A80&amp;tr=udp%3A%2F%2Fopen.demonii.com%3A1337&amp;tr=udp%3A%2F%2Ftracker.coppersurfer.tk%3A6969&amp;tr=udp%3A%2F%2Fexodus.desync.com%3A6969",
  "seeders": 42,
  "leechers": 9,
  "uploader": "extremezone",
  "files": -1,
  "time": 1345310825,
  "description": " &lt;a href=&quot;http://leetleech.org/images/49034501233648226983.jpg&quot; rel=&quot;nofollow&quot; target=&quot;_NEW&quot;&gt;http://leetleech.org/images/49034501233648226983.jpg&lt;/a&gt;\n\nScreens:\n &lt;a href=&quot;\nhttp://leetleech.org/images/19089274399991568916.jpg&quot; rel=&quot;nofollow&quot; target=&quot;_NEW&quot;&gt;\nhttp://leetleech.org/images/19089274399991568916.jpg&lt;/a&gt; &lt;a href=&quot;\nhttp://leetleech.org/images/90560976978052313567.jpg&quot; rel=&quot;nofollow&quot; target=&quot;_NEW&quot;&gt;\nhttp://leetleech.org/images/90560976978052313567.jpg&lt;/a&gt; &lt;a href=&quot;\nhttp://leetleech.org/images/50003226153135190308.jpg&quot; rel=&quot;nofollow&quot; target=&quot;_NEW&quot;&gt;\nhttp://leetleech.org/images/50003226153135190308.jpg&lt;/a&gt; &lt;a href=&quot;\nhttp://leetleech.org/images/26215279044221919462.jpg&quot; rel=&quot;nofollow&quot; target=&quot;_NEW&quot;&gt;\nhttp://leetleech.org/images/26215279044221919462.jpg&lt;/a&gt;\n\nAlternative:\n &lt;a href=&quot;\nhttp://www.postimg.com/image/80000/photo-79650.jpg&quot; rel=&quot;nofollow&quot; target=&quot;_NEW&quot;&gt;\nhttp://www.postimg.com/image/80000/photo-79650.jpg&lt;/a&gt; &lt;a href=&quot;\nhttp://www.postimg.com/image/80000/photo-79651.jpg&quot; rel=&quot;nofollow&quot; target=&quot;_NEW&quot;&gt;\nhttp://www.postimg.com/image/80000/photo-79651.jpg&lt;/a&gt; &lt;a href=&quot;\nhttp://www.postimg.com/image/80000/photo-79652.jpg&quot; rel=&quot;nofollow&quot; target=&quot;_NEW&quot;&gt;\nhttp://www.postimg.com/image/80000/photo-79652.jpg&lt;/a&gt; &lt;a href=&quot;\nhttp://www.postimg.com/image/80000/photo-79653.jpg&quot; rel=&quot;nofollow&quot; target=&quot;_NEW&quot;&gt;\nhttp://www.postimg.com/image/80000/photo-79653.jpg&lt;/a&gt;\n\nScreenCaps:\n &lt;a href=&quot;\nhttp://www.postimg.com/image/80000/photo-79657.jpg&quot; rel=&quot;nofollow&quot; target=&quot;_NEW&quot;&gt;\nhttp://www.postimg.com/image/80000/photo-79657.jpg&lt;/a&gt;\n\nThe Avengers (2012) DVDRip XviD-MAX\nFormat                                   : AVI\nFormat/Info                              : Audio Video Interleave\nFormat profile                           : OpenDML\nFormat settings                          : rec\nFile size                                : 2.09 GiB\nDuration                                 : 2h 17mn\nOverall bit rate                         : 2 183 Kbps\nWriting application                      : VirtualDubMod 1.5.10.2 (build 2542/release)\nWriting library                          : VirtualDubMod build 2542/release\nOriginal source form                     : MAX TORRENTZ\nCopyright                                : SIGISMUNT\n\nVideo\nID                                       : 0\nFormat                                   : MPEG-4 Visual\nFormat profile                           : Simple@L3\nFormat settings, BVOP                    : No\nFormat settings, QPel                    : No\nFormat settings, GMC                     : No warppoints\nFormat settings, Matrix                  : Default (H.263)\nCodec ID                                 : XVID\nCodec ID/Hint                            : XviD\nDuration                                 : 2h 17mn\nBit rate                                 : 1 857 Kbps\nWidth                                    : 720 pixels\nHeight                                   : 384 pixels\nDisplay aspect ratio                     : 1.85:1\nFrame rate                               : 25.000 fps\nColor space                              : YUV\nChroma subsampling                       : 4:2:0\nBit depth                                : 8 bits\nScan type                                : Progressive\nCompression mode                         : Lossy\nBits/(Pixel*Frame)                       : 0.269\nStream size                              : 1.78 GiB (85%)\nWriting library                          : XviD 1.1.2 (UTC 2006-11-01)\n\nAudio\nID                                       : 1\nFormat                                   : AC-3\nFormat/Info                              : Audio Coding 3\nMode extension                           : CM (complete main)\nFormat settings, Endianness              : Big\nCodec ID                                 : 2000\nDuration                                 : 2h 17mn\nBit rate mode                            : Constant\nBit rate                                 : 320 Kbps\nChannel(s)                               : 6 channels\nChannel positions                        : Front: L C R, Side: L R, LFE\nSampling rate                            : 48.0 KHz\nBit depth                                : 16 bits\nCompression mode                         : Lossy\nStream size                              : 314 MiB (15%)\nAlignment                                : Aligned on interleaves\nInterleave, duration                     : 64 ms (1.60 video frames)\nInterleave, preload duration             : 192 ms\n\nSource: DVD (perfect a/v/sync quality,sample included)\nThis torrent is not seedbox supported,please seed it to the MAX",
  "parsed": {
    "xt": "urn:btih:2474e7f3e11692639b0894c1f06543cad7c4ad53",
    "dn": "The Avengers (2012) DVDRip XviD-MAX",
    "tr": [
      "udp://exodus.desync.com:6969",
      "udp://open.demonii.com:1337",
      "udp://tracker.coppersurfer.tk:6969",
      "udp://tracker.openbittorrent.com:80"
    ],
    "infoHash": "2474e7f3e11692639b0894c1f06543cad7c4ad53",
    "infoHashBuffer": {
      "type": "Buffer",
      "data": [
        36,
        116,
        231,
        243,
        225,
        22,
        146,
        99,
        155,
        8,
        148,
        193,
        240,
        101,
        67,
        202,
        215,
        196,
        173,
        83
      ]
    },
    "name": "The Avengers (2012) DVDRip XviD-MAX",
    "announce": [
      "udp://exodus.desync.com:6969",
      "udp://open.demonii.com:1337",
      "udp://tracker.coppersurfer.tk:6969",
      "udp://tracker.openbittorrent.com:80"
    ],
    "urlList": []
  },
  "previous": 1,
  "peers": 2,
  "last_updated": "2016-12-26T19:04:10.903Z"
}